<mxfile host="app.diagrams.net" modified="2023-09-06T09:53:20.668Z" agent="Mozilla/5.0 (X11; Ubuntu; Linux x86_64; rv:109.0) Gecko/20100101 Firefox/117.0" etag="ab4_bg8sqlSfkgzz2A7O" version="21.7.2" type="device">
  <diagram name="Page-1" id="P9_h08XneMgwSpBfJz6g">
    <mxGraphModel dx="1364" dy="749" grid="1" gridSize="10" guides="1" tooltips="1" connect="1" arrows="1" fold="1" page="1" pageScale="2" pageWidth="827" pageHeight="1169" math="0" shadow="0">
      <root>
        <mxCell id="0" />
        <mxCell id="1" parent="0" />
        <mxCell id="sGS4nasx2kBWRTP7ISPX-216" value="" style="endArrow=none;dashed=1;html=1;dashPattern=1 3;strokeWidth=1;rounded=0;endSize=7;strokeColor=#0000CC;" edge="1" parent="1">
          <mxGeometry width="50" height="50" relative="1" as="geometry">
            <mxPoint x="788" y="451" as="sourcePoint" />
            <mxPoint x="854" y="547" as="targetPoint" />
          </mxGeometry>
        </mxCell>
        <mxCell id="sGS4nasx2kBWRTP7ISPX-44" style="rounded=0;orthogonalLoop=1;jettySize=auto;html=1;entryX=0;entryY=0;entryDx=0;entryDy=28.80945108961392;entryPerimeter=0;endArrow=none;endFill=0;dashed=1;dashPattern=1 4;fillColor=#dae8fc;strokeColor=#6c8ebf;exitX=0;exitY=0;exitDx=0;exitDy=22.79763722759652;exitPerimeter=0;" edge="1" parent="1" source="llZTtqRXWTdCPuyKn7po-6" target="llZTtqRXWTdCPuyKn7po-7">
          <mxGeometry relative="1" as="geometry">
            <mxPoint x="510" y="620" as="sourcePoint" />
          </mxGeometry>
        </mxCell>
        <mxCell id="sGS4nasx2kBWRTP7ISPX-45" style="rounded=0;orthogonalLoop=1;jettySize=auto;html=1;entryX=0;entryY=0;entryDx=120;entryDy=28.80945108961392;entryPerimeter=0;exitX=0;exitY=0;exitDx=30.000000000000004;exitDy=22.797637227596525;exitPerimeter=0;endArrow=none;endFill=0;dashed=1;dashPattern=1 4;fillColor=#dae8fc;strokeColor=#6c8ebf;" edge="1" parent="1" source="llZTtqRXWTdCPuyKn7po-6" target="llZTtqRXWTdCPuyKn7po-7">
          <mxGeometry relative="1" as="geometry">
            <mxPoint x="555" y="540" as="sourcePoint" />
            <mxPoint x="680" y="606" as="targetPoint" />
          </mxGeometry>
        </mxCell>
        <mxCell id="sGS4nasx2kBWRTP7ISPX-46" style="rounded=0;orthogonalLoop=1;jettySize=auto;html=1;entryX=0.5;entryY=0;entryDx=0;entryDy=0;entryPerimeter=0;exitX=0.516;exitY=0.431;exitDx=0;exitDy=0;exitPerimeter=0;endArrow=none;endFill=0;dashed=1;dashPattern=1 4;fillColor=#dae8fc;strokeColor=#6c8ebf;" edge="1" parent="1" source="llZTtqRXWTdCPuyKn7po-6" target="llZTtqRXWTdCPuyKn7po-7">
          <mxGeometry relative="1" as="geometry">
            <mxPoint x="550" y="540" as="sourcePoint" />
            <mxPoint x="630" y="580" as="targetPoint" />
          </mxGeometry>
        </mxCell>
        <mxCell id="sGS4nasx2kBWRTP7ISPX-39" style="rounded=0;orthogonalLoop=1;jettySize=auto;html=1;entryX=0.501;entryY=0.477;entryDx=0;entryDy=0;entryPerimeter=0;exitX=0.5;exitY=0;exitDx=0;exitDy=0;exitPerimeter=0;strokeColor=#b85450;shadow=0;endArrow=none;endFill=0;strokeWidth=1;fillColor=#f8cecc;dashed=1;dashPattern=1 2;" edge="1" parent="1" source="llZTtqRXWTdCPuyKn7po-4" target="llZTtqRXWTdCPuyKn7po-5">
          <mxGeometry relative="1" as="geometry" />
        </mxCell>
        <mxCell id="llZTtqRXWTdCPuyKn7po-4" value="" style="html=1;whiteSpace=wrap;shape=isoCube2;backgroundOutline=1;isoAngle=15;fillColor=none;strokeColor=#b85450;dashed=1;strokeWidth=2;" parent="1" vertex="1">
          <mxGeometry x="560" y="480" width="30" height="30" as="geometry" />
        </mxCell>
        <mxCell id="sGS4nasx2kBWRTP7ISPX-41" style="rounded=0;orthogonalLoop=1;jettySize=auto;html=1;entryX=0;entryY=0;entryDx=120;entryDy=91.19054891038608;entryPerimeter=0;exitX=0;exitY=0;exitDx=30;exitDy=7.20236277240348;exitPerimeter=0;strokeColor=#b85450;shadow=0;endArrow=none;endFill=0;strokeWidth=1;fillColor=#f8cecc;dashed=1;dashPattern=1 2;" edge="1" parent="1" source="llZTtqRXWTdCPuyKn7po-4" target="llZTtqRXWTdCPuyKn7po-5">
          <mxGeometry relative="1" as="geometry">
            <mxPoint x="650" y="490" as="sourcePoint" />
            <mxPoint x="830" y="417" as="targetPoint" />
          </mxGeometry>
        </mxCell>
        <mxCell id="sGS4nasx2kBWRTP7ISPX-42" style="rounded=0;orthogonalLoop=1;jettySize=auto;html=1;strokeColor=#b85450;shadow=0;endArrow=none;endFill=0;strokeWidth=1;fillColor=#f8cecc;dashed=1;dashPattern=1 2;entryX=0;entryY=0;entryDx=0;entryDy=91.19054891038608;entryPerimeter=0;exitX=0;exitY=0;exitDx=0;exitDy=7.20236277240348;exitPerimeter=0;" edge="1" parent="1" source="llZTtqRXWTdCPuyKn7po-4" target="llZTtqRXWTdCPuyKn7po-5">
          <mxGeometry relative="1" as="geometry">
            <mxPoint x="635" y="510" as="sourcePoint" />
            <mxPoint x="640" y="360" as="targetPoint" />
          </mxGeometry>
        </mxCell>
        <mxCell id="sGS4nasx2kBWRTP7ISPX-43" style="rounded=0;orthogonalLoop=1;jettySize=auto;html=1;entryX=0.5;entryY=1;entryDx=0;entryDy=0;entryPerimeter=0;strokeColor=#b85450;shadow=0;endArrow=none;endFill=0;exitX=0.497;exitY=0.479;exitDx=0;exitDy=0;exitPerimeter=0;strokeWidth=1;fillColor=#f8cecc;dashed=1;dashPattern=1 2;" edge="1" parent="1" source="llZTtqRXWTdCPuyKn7po-4" target="llZTtqRXWTdCPuyKn7po-5">
          <mxGeometry relative="1" as="geometry">
            <mxPoint x="645" y="500" as="sourcePoint" />
            <mxPoint x="790" y="480" as="targetPoint" />
          </mxGeometry>
        </mxCell>
        <mxCell id="llZTtqRXWTdCPuyKn7po-5" value="" style="html=1;whiteSpace=wrap;shape=isoCube2;backgroundOutline=1;isoAngle=15;fillColor=default;strokeColor=#B85450;" parent="1" vertex="1">
          <mxGeometry x="560" y="290" width="120" height="120" as="geometry" />
        </mxCell>
        <mxCell id="llZTtqRXWTdCPuyKn7po-7" value="" style="html=1;whiteSpace=wrap;shape=isoCube2;backgroundOutline=1;isoAngle=15;fillColor=default;strokeColor=#6C8EBF;" parent="1" vertex="1">
          <mxGeometry x="560" y="609.52" width="120" height="120" as="geometry" />
        </mxCell>
        <mxCell id="sGS4nasx2kBWRTP7ISPX-48" style="rounded=0;orthogonalLoop=1;jettySize=auto;html=1;entryX=0;entryY=0;entryDx=0;entryDy=91.19054891038608;entryPerimeter=0;exitX=0.5;exitY=1;exitDx=0;exitDy=0;exitPerimeter=0;strokeColor=#b85450;shadow=0;endArrow=block;endFill=1;strokeWidth=1;fillColor=#f8cecc;" edge="1" parent="1" source="llZTtqRXWTdCPuyKn7po-5" target="llZTtqRXWTdCPuyKn7po-8">
          <mxGeometry relative="1" as="geometry">
            <mxPoint x="660" y="493" as="sourcePoint" />
            <mxPoint x="791" y="411" as="targetPoint" />
          </mxGeometry>
        </mxCell>
        <mxCell id="sGS4nasx2kBWRTP7ISPX-49" style="rounded=0;orthogonalLoop=1;jettySize=auto;html=1;entryX=0.499;entryY=0.53;entryDx=0;entryDy=0;entryPerimeter=0;exitX=0;exitY=0;exitDx=120;exitDy=91.19054891038608;exitPerimeter=0;strokeColor=#b85450;shadow=0;endArrow=block;endFill=1;strokeWidth=1;fillColor=#f8cecc;" edge="1" parent="1" target="llZTtqRXWTdCPuyKn7po-8">
          <mxGeometry relative="1" as="geometry">
            <mxPoint x="680.0000000000001" y="374.19054891038616" as="sourcePoint" />
            <mxPoint x="860" y="479" as="targetPoint" />
          </mxGeometry>
        </mxCell>
        <mxCell id="sGS4nasx2kBWRTP7ISPX-50" style="rounded=0;orthogonalLoop=1;jettySize=auto;html=1;entryX=0;entryY=0;entryDx=0;entryDy=28.80945108961392;entryPerimeter=0;exitX=0.498;exitY=0.469;exitDx=0;exitDy=0;exitPerimeter=0;strokeColor=#b85450;shadow=0;endArrow=block;endFill=1;strokeWidth=1;fillColor=#f8cecc;" edge="1" parent="1" source="llZTtqRXWTdCPuyKn7po-5" target="llZTtqRXWTdCPuyKn7po-8">
          <mxGeometry relative="1" as="geometry">
            <mxPoint x="790" y="450" as="sourcePoint" />
            <mxPoint x="860" y="486" as="targetPoint" />
          </mxGeometry>
        </mxCell>
        <mxCell id="sGS4nasx2kBWRTP7ISPX-51" style="rounded=0;orthogonalLoop=1;jettySize=auto;html=1;entryX=0.5;entryY=0;entryDx=0;entryDy=0;entryPerimeter=0;exitX=0;exitY=0;exitDx=120;exitDy=28.80945108961392;exitPerimeter=0;strokeColor=#b85450;shadow=0;endArrow=block;endFill=1;strokeWidth=1;fillColor=#f8cecc;" edge="1" parent="1" source="llZTtqRXWTdCPuyKn7po-5" target="llZTtqRXWTdCPuyKn7po-8">
          <mxGeometry relative="1" as="geometry">
            <mxPoint x="790" y="397" as="sourcePoint" />
            <mxPoint x="860" y="434" as="targetPoint" />
          </mxGeometry>
        </mxCell>
        <mxCell id="sGS4nasx2kBWRTP7ISPX-52" style="rounded=0;orthogonalLoop=1;jettySize=auto;html=1;entryX=0;entryY=0;entryDx=0;entryDy=91.19054891038608;entryPerimeter=0;exitX=0.5;exitY=1;exitDx=0;exitDy=0;exitPerimeter=0;strokeColor=#6c8ebf;shadow=0;endArrow=block;endFill=1;strokeWidth=1;fillColor=#dae8fc;" edge="1" parent="1" source="llZTtqRXWTdCPuyKn7po-7" target="llZTtqRXWTdCPuyKn7po-9">
          <mxGeometry relative="1" as="geometry">
            <mxPoint x="780" y="626" as="sourcePoint" />
            <mxPoint x="850" y="662" as="targetPoint" />
          </mxGeometry>
        </mxCell>
        <mxCell id="sGS4nasx2kBWRTP7ISPX-53" style="rounded=0;orthogonalLoop=1;jettySize=auto;html=1;exitX=0;exitY=0;exitDx=120;exitDy=91.19054891038608;exitPerimeter=0;strokeColor=#6c8ebf;shadow=0;endArrow=block;endFill=1;strokeWidth=1;fillColor=#dae8fc;entryX=0.513;entryY=0.51;entryDx=0;entryDy=0;entryPerimeter=0;" edge="1" parent="1" source="llZTtqRXWTdCPuyKn7po-7" target="llZTtqRXWTdCPuyKn7po-9">
          <mxGeometry relative="1" as="geometry">
            <mxPoint x="830" y="602" as="sourcePoint" />
            <mxPoint x="900" y="650" as="targetPoint" />
          </mxGeometry>
        </mxCell>
        <mxCell id="sGS4nasx2kBWRTP7ISPX-54" style="rounded=0;orthogonalLoop=1;jettySize=auto;html=1;entryX=0;entryY=0;entryDx=0;entryDy=28.80945108961392;entryPerimeter=0;exitX=0.503;exitY=0.483;exitDx=0;exitDy=0;exitPerimeter=0;strokeColor=#6c8ebf;shadow=0;endArrow=block;endFill=1;strokeWidth=1;fillColor=#dae8fc;" edge="1" parent="1" source="llZTtqRXWTdCPuyKn7po-7" target="llZTtqRXWTdCPuyKn7po-9">
          <mxGeometry relative="1" as="geometry">
            <mxPoint x="780" y="573" as="sourcePoint" />
            <mxPoint x="850" y="610" as="targetPoint" />
          </mxGeometry>
        </mxCell>
        <mxCell id="sGS4nasx2kBWRTP7ISPX-55" style="rounded=0;orthogonalLoop=1;jettySize=auto;html=1;entryX=0.5;entryY=0;entryDx=0;entryDy=0;entryPerimeter=0;exitX=0;exitY=0;exitDx=120;exitDy=28.80945108961392;exitPerimeter=0;strokeColor=#6c8ebf;shadow=0;endArrow=block;endFill=1;strokeWidth=1;fillColor=#dae8fc;" edge="1" parent="1" source="llZTtqRXWTdCPuyKn7po-7" target="llZTtqRXWTdCPuyKn7po-9">
          <mxGeometry relative="1" as="geometry">
            <mxPoint x="830" y="550" as="sourcePoint" />
            <mxPoint x="900" y="586" as="targetPoint" />
          </mxGeometry>
        </mxCell>
        <mxCell id="llZTtqRXWTdCPuyKn7po-9" value="" style="html=1;whiteSpace=wrap;shape=isoCube2;backgroundOutline=1;isoAngle=15;fillColor=default;" parent="1" vertex="1">
          <mxGeometry x="700" y="688.81" width="120" height="120" as="geometry" />
        </mxCell>
        <mxCell id="sGS4nasx2kBWRTP7ISPX-79" value="" style="whiteSpace=wrap;html=1;aspect=fixed;fillColor=#dae8fc;strokeColor=#000000;" vertex="1" parent="1">
          <mxGeometry x="920" y="589.8" width="10" height="10" as="geometry" />
        </mxCell>
        <mxCell id="sGS4nasx2kBWRTP7ISPX-80" value="" style="whiteSpace=wrap;html=1;aspect=fixed;fillColor=#dae8fc;strokeColor=#000000;" vertex="1" parent="1">
          <mxGeometry x="930" y="589.8" width="10" height="10" as="geometry" />
        </mxCell>
        <mxCell id="sGS4nasx2kBWRTP7ISPX-81" value="" style="whiteSpace=wrap;html=1;aspect=fixed;fillColor=#dae8fc;strokeColor=#000000;" vertex="1" parent="1">
          <mxGeometry x="940" y="589.8" width="10" height="10" as="geometry" />
        </mxCell>
        <mxCell id="sGS4nasx2kBWRTP7ISPX-82" value="" style="whiteSpace=wrap;html=1;aspect=fixed;fillColor=#dae8fc;strokeColor=#000000;" vertex="1" parent="1">
          <mxGeometry x="950" y="589.8" width="10" height="10" as="geometry" />
        </mxCell>
        <mxCell id="sGS4nasx2kBWRTP7ISPX-83" value="" style="whiteSpace=wrap;html=1;aspect=fixed;fillColor=#dae8fc;strokeColor=#000000;" vertex="1" parent="1">
          <mxGeometry x="960" y="589.8" width="10" height="10" as="geometry" />
        </mxCell>
        <mxCell id="sGS4nasx2kBWRTP7ISPX-84" value="" style="whiteSpace=wrap;html=1;aspect=fixed;fillColor=#dae8fc;strokeColor=#000000;" vertex="1" parent="1">
          <mxGeometry x="970" y="589.8" width="10" height="10" as="geometry" />
        </mxCell>
        <mxCell id="sGS4nasx2kBWRTP7ISPX-85" value="" style="whiteSpace=wrap;html=1;aspect=fixed;fillColor=#dae8fc;strokeColor=#000000;" vertex="1" parent="1">
          <mxGeometry x="980" y="589.8" width="10" height="10" as="geometry" />
        </mxCell>
        <mxCell id="sGS4nasx2kBWRTP7ISPX-86" value="" style="whiteSpace=wrap;html=1;aspect=fixed;fillColor=#dae8fc;strokeColor=#000000;" vertex="1" parent="1">
          <mxGeometry x="990" y="589.8" width="10" height="10" as="geometry" />
        </mxCell>
        <mxCell id="sGS4nasx2kBWRTP7ISPX-87" value="" style="whiteSpace=wrap;html=1;aspect=fixed;fillColor=#dae8fc;strokeColor=#000000;" vertex="1" parent="1">
          <mxGeometry x="1000" y="589.8" width="10" height="10" as="geometry" />
        </mxCell>
        <mxCell id="sGS4nasx2kBWRTP7ISPX-88" value="" style="whiteSpace=wrap;html=1;aspect=fixed;fillColor=#dae8fc;strokeColor=#000000;" vertex="1" parent="1">
          <mxGeometry x="1010" y="589.8" width="10" height="10" as="geometry" />
        </mxCell>
        <mxCell id="sGS4nasx2kBWRTP7ISPX-89" value="" style="whiteSpace=wrap;html=1;aspect=fixed;fillColor=#dae8fc;strokeColor=#000000;" vertex="1" parent="1">
          <mxGeometry x="1020" y="589.8" width="10" height="10" as="geometry" />
        </mxCell>
        <mxCell id="sGS4nasx2kBWRTP7ISPX-90" value="" style="whiteSpace=wrap;html=1;aspect=fixed;fillColor=#dae8fc;strokeColor=#000000;" vertex="1" parent="1">
          <mxGeometry x="1030" y="589.8" width="10" height="10" as="geometry" />
        </mxCell>
        <mxCell id="sGS4nasx2kBWRTP7ISPX-91" value="" style="whiteSpace=wrap;html=1;aspect=fixed;fillColor=#dae8fc;strokeColor=#000000;" vertex="1" parent="1">
          <mxGeometry x="1040" y="589.8" width="10" height="10" as="geometry" />
        </mxCell>
        <mxCell id="sGS4nasx2kBWRTP7ISPX-92" value="" style="whiteSpace=wrap;html=1;aspect=fixed;fillColor=#dae8fc;strokeColor=#000000;" vertex="1" parent="1">
          <mxGeometry x="1050" y="589.8" width="10" height="10" as="geometry" />
        </mxCell>
        <mxCell id="sGS4nasx2kBWRTP7ISPX-93" value="" style="whiteSpace=wrap;html=1;aspect=fixed;fillColor=#dae8fc;strokeColor=#000000;" vertex="1" parent="1">
          <mxGeometry x="1060" y="589.8" width="10" height="10" as="geometry" />
        </mxCell>
        <mxCell id="sGS4nasx2kBWRTP7ISPX-94" value="" style="whiteSpace=wrap;html=1;aspect=fixed;fillColor=#dae8fc;strokeColor=#000000;" vertex="1" parent="1">
          <mxGeometry x="1070" y="589.8" width="10" height="10" as="geometry" />
        </mxCell>
        <mxCell id="sGS4nasx2kBWRTP7ISPX-95" value="" style="whiteSpace=wrap;html=1;aspect=fixed;fillColor=#f8cecc;strokeColor=#000000;" vertex="1" parent="1">
          <mxGeometry x="920" y="579.8" width="10" height="10" as="geometry" />
        </mxCell>
        <mxCell id="sGS4nasx2kBWRTP7ISPX-96" value="" style="whiteSpace=wrap;html=1;aspect=fixed;fillColor=#f8cecc;strokeColor=#000000;" vertex="1" parent="1">
          <mxGeometry x="930" y="579.8" width="10" height="10" as="geometry" />
        </mxCell>
        <mxCell id="sGS4nasx2kBWRTP7ISPX-97" value="" style="whiteSpace=wrap;html=1;aspect=fixed;fillColor=#f8cecc;strokeColor=#000000;" vertex="1" parent="1">
          <mxGeometry x="940" y="579.8" width="10" height="10" as="geometry" />
        </mxCell>
        <mxCell id="sGS4nasx2kBWRTP7ISPX-98" value="" style="whiteSpace=wrap;html=1;aspect=fixed;fillColor=#f8cecc;strokeColor=#000000;" vertex="1" parent="1">
          <mxGeometry x="950" y="579.8" width="10" height="10" as="geometry" />
        </mxCell>
        <mxCell id="sGS4nasx2kBWRTP7ISPX-99" value="" style="whiteSpace=wrap;html=1;aspect=fixed;fillColor=#f8cecc;strokeColor=#000000;" vertex="1" parent="1">
          <mxGeometry x="960" y="579.8" width="10" height="10" as="geometry" />
        </mxCell>
        <mxCell id="sGS4nasx2kBWRTP7ISPX-100" value="" style="whiteSpace=wrap;html=1;aspect=fixed;fillColor=#f8cecc;strokeColor=#000000;" vertex="1" parent="1">
          <mxGeometry x="970" y="579.8" width="10" height="10" as="geometry" />
        </mxCell>
        <mxCell id="sGS4nasx2kBWRTP7ISPX-101" value="" style="whiteSpace=wrap;html=1;aspect=fixed;fillColor=#f8cecc;strokeColor=#000000;" vertex="1" parent="1">
          <mxGeometry x="980" y="579.8" width="10" height="10" as="geometry" />
        </mxCell>
        <mxCell id="sGS4nasx2kBWRTP7ISPX-102" value="" style="whiteSpace=wrap;html=1;aspect=fixed;fillColor=#f8cecc;strokeColor=#000000;" vertex="1" parent="1">
          <mxGeometry x="990" y="579.8" width="10" height="10" as="geometry" />
        </mxCell>
        <mxCell id="sGS4nasx2kBWRTP7ISPX-103" value="" style="whiteSpace=wrap;html=1;aspect=fixed;fillColor=#f8cecc;strokeColor=#000000;" vertex="1" parent="1">
          <mxGeometry x="1000" y="579.8" width="10" height="10" as="geometry" />
        </mxCell>
        <mxCell id="sGS4nasx2kBWRTP7ISPX-104" value="" style="whiteSpace=wrap;html=1;aspect=fixed;fillColor=#f8cecc;strokeColor=#000000;" vertex="1" parent="1">
          <mxGeometry x="1010" y="579.8" width="10" height="10" as="geometry" />
        </mxCell>
        <mxCell id="sGS4nasx2kBWRTP7ISPX-105" value="" style="whiteSpace=wrap;html=1;aspect=fixed;fillColor=#f8cecc;strokeColor=#000000;" vertex="1" parent="1">
          <mxGeometry x="1020" y="579.8" width="10" height="10" as="geometry" />
        </mxCell>
        <mxCell id="sGS4nasx2kBWRTP7ISPX-106" value="" style="whiteSpace=wrap;html=1;aspect=fixed;fillColor=#f8cecc;strokeColor=#000000;" vertex="1" parent="1">
          <mxGeometry x="1030" y="579.8" width="10" height="10" as="geometry" />
        </mxCell>
        <mxCell id="sGS4nasx2kBWRTP7ISPX-107" value="" style="whiteSpace=wrap;html=1;aspect=fixed;fillColor=#f8cecc;strokeColor=#000000;" vertex="1" parent="1">
          <mxGeometry x="1040" y="579.8" width="10" height="10" as="geometry" />
        </mxCell>
        <mxCell id="sGS4nasx2kBWRTP7ISPX-108" value="" style="whiteSpace=wrap;html=1;aspect=fixed;fillColor=#f8cecc;strokeColor=#000000;" vertex="1" parent="1">
          <mxGeometry x="1050" y="579.8" width="10" height="10" as="geometry" />
        </mxCell>
        <mxCell id="sGS4nasx2kBWRTP7ISPX-109" value="" style="whiteSpace=wrap;html=1;aspect=fixed;fillColor=#f8cecc;strokeColor=#000000;" vertex="1" parent="1">
          <mxGeometry x="1060" y="579.8" width="10" height="10" as="geometry" />
        </mxCell>
        <mxCell id="sGS4nasx2kBWRTP7ISPX-110" value="" style="whiteSpace=wrap;html=1;aspect=fixed;fillColor=#f8cecc;strokeColor=#000000;" vertex="1" parent="1">
          <mxGeometry x="1070" y="579.8" width="10" height="10" as="geometry" />
        </mxCell>
        <mxCell id="sGS4nasx2kBWRTP7ISPX-136" style="edgeStyle=orthogonalEdgeStyle;rounded=0;orthogonalLoop=1;jettySize=auto;html=1;exitX=0.5;exitY=0;exitDx=0;exitDy=0;entryX=0.5;entryY=1;entryDx=0;entryDy=0;fillColor=#dae8fc;strokeColor=#0000CC;" edge="1" parent="1" source="sGS4nasx2kBWRTP7ISPX-111" target="sGS4nasx2kBWRTP7ISPX-112">
          <mxGeometry relative="1" as="geometry" />
        </mxCell>
        <mxCell id="sGS4nasx2kBWRTP7ISPX-111" value="" style="whiteSpace=wrap;html=1;aspect=fixed;fillColor=#dae8fc;strokeColor=#0000CC;" vertex="1" parent="1">
          <mxGeometry x="1100" y="589.8" width="10" height="10" as="geometry" />
        </mxCell>
        <mxCell id="sGS4nasx2kBWRTP7ISPX-112" value="" style="whiteSpace=wrap;html=1;aspect=fixed;fillColor=#f8cecc;strokeColor=#0000CC;" vertex="1" parent="1">
          <mxGeometry x="1100" y="579.8" width="10" height="10" as="geometry" />
        </mxCell>
        <mxCell id="sGS4nasx2kBWRTP7ISPX-113" value="" style="whiteSpace=wrap;html=1;aspect=fixed;fillColor=#dae8fc;strokeColor=#0000CC;dashed=1;" vertex="1" parent="1">
          <mxGeometry x="1040" y="589.8" width="10" height="10" as="geometry" />
        </mxCell>
        <mxCell id="sGS4nasx2kBWRTP7ISPX-114" value="" style="whiteSpace=wrap;html=1;aspect=fixed;fillColor=#f8cecc;strokeColor=#0000CC;dashed=1;" vertex="1" parent="1">
          <mxGeometry x="1040" y="579.8" width="10" height="10" as="geometry" />
        </mxCell>
        <mxCell id="sGS4nasx2kBWRTP7ISPX-115" value="" style="endArrow=none;dashed=1;html=1;dashPattern=1 3;strokeWidth=1;rounded=0;entryX=0;entryY=1;entryDx=0;entryDy=0;fillColor=#fff2cc;strokeColor=#0000CC;exitX=1;exitY=1;exitDx=0;exitDy=0;" edge="1" parent="1" source="sGS4nasx2kBWRTP7ISPX-113" target="sGS4nasx2kBWRTP7ISPX-111">
          <mxGeometry width="50" height="50" relative="1" as="geometry">
            <mxPoint x="1050" y="620" as="sourcePoint" />
            <mxPoint x="1050" y="579.8" as="targetPoint" />
          </mxGeometry>
        </mxCell>
        <mxCell id="sGS4nasx2kBWRTP7ISPX-116" value="" style="endArrow=none;dashed=1;html=1;dashPattern=1 3;strokeWidth=1;rounded=0;exitX=0;exitY=0;exitDx=0;exitDy=0;entryX=0;entryY=0;entryDx=0;entryDy=0;fillColor=#fff2cc;strokeColor=#0000CC;" edge="1" parent="1" source="sGS4nasx2kBWRTP7ISPX-108" target="sGS4nasx2kBWRTP7ISPX-112">
          <mxGeometry width="50" height="50" relative="1" as="geometry">
            <mxPoint x="1060" y="609.8" as="sourcePoint" />
            <mxPoint x="1130" y="609.8" as="targetPoint" />
          </mxGeometry>
        </mxCell>
        <mxCell id="sGS4nasx2kBWRTP7ISPX-117" value="" style="whiteSpace=wrap;html=1;aspect=fixed;" vertex="1" parent="1">
          <mxGeometry x="1140" y="585" width="10" height="10" as="geometry" />
        </mxCell>
        <mxCell id="sGS4nasx2kBWRTP7ISPX-118" value="" style="whiteSpace=wrap;html=1;aspect=fixed;" vertex="1" parent="1">
          <mxGeometry x="1150" y="585" width="10" height="10" as="geometry" />
        </mxCell>
        <mxCell id="sGS4nasx2kBWRTP7ISPX-119" value="" style="whiteSpace=wrap;html=1;aspect=fixed;" vertex="1" parent="1">
          <mxGeometry x="1160" y="585" width="10" height="10" as="geometry" />
        </mxCell>
        <mxCell id="sGS4nasx2kBWRTP7ISPX-120" value="" style="whiteSpace=wrap;html=1;aspect=fixed;" vertex="1" parent="1">
          <mxGeometry x="1170" y="585" width="10" height="10" as="geometry" />
        </mxCell>
        <mxCell id="sGS4nasx2kBWRTP7ISPX-121" value="" style="whiteSpace=wrap;html=1;aspect=fixed;" vertex="1" parent="1">
          <mxGeometry x="1180" y="585" width="10" height="10" as="geometry" />
        </mxCell>
        <mxCell id="sGS4nasx2kBWRTP7ISPX-122" value="" style="whiteSpace=wrap;html=1;aspect=fixed;" vertex="1" parent="1">
          <mxGeometry x="1190" y="585" width="10" height="10" as="geometry" />
        </mxCell>
        <mxCell id="sGS4nasx2kBWRTP7ISPX-123" value="" style="whiteSpace=wrap;html=1;aspect=fixed;" vertex="1" parent="1">
          <mxGeometry x="1200" y="585" width="10" height="10" as="geometry" />
        </mxCell>
        <mxCell id="sGS4nasx2kBWRTP7ISPX-124" value="" style="whiteSpace=wrap;html=1;aspect=fixed;" vertex="1" parent="1">
          <mxGeometry x="1210" y="585" width="10" height="10" as="geometry" />
        </mxCell>
        <mxCell id="sGS4nasx2kBWRTP7ISPX-125" value="" style="whiteSpace=wrap;html=1;aspect=fixed;" vertex="1" parent="1">
          <mxGeometry x="1220" y="585" width="10" height="10" as="geometry" />
        </mxCell>
        <mxCell id="sGS4nasx2kBWRTP7ISPX-126" value="" style="whiteSpace=wrap;html=1;aspect=fixed;" vertex="1" parent="1">
          <mxGeometry x="1230" y="585" width="10" height="10" as="geometry" />
        </mxCell>
        <mxCell id="sGS4nasx2kBWRTP7ISPX-127" value="" style="whiteSpace=wrap;html=1;aspect=fixed;" vertex="1" parent="1">
          <mxGeometry x="1240" y="585" width="10" height="10" as="geometry" />
        </mxCell>
        <mxCell id="sGS4nasx2kBWRTP7ISPX-128" value="" style="whiteSpace=wrap;html=1;aspect=fixed;" vertex="1" parent="1">
          <mxGeometry x="1250" y="585" width="10" height="10" as="geometry" />
        </mxCell>
        <mxCell id="sGS4nasx2kBWRTP7ISPX-129" value="" style="whiteSpace=wrap;html=1;aspect=fixed;" vertex="1" parent="1">
          <mxGeometry x="1260" y="585" width="10" height="10" as="geometry" />
        </mxCell>
        <mxCell id="sGS4nasx2kBWRTP7ISPX-130" value="" style="whiteSpace=wrap;html=1;aspect=fixed;" vertex="1" parent="1">
          <mxGeometry x="1270" y="585" width="10" height="10" as="geometry" />
        </mxCell>
        <mxCell id="sGS4nasx2kBWRTP7ISPX-131" value="" style="whiteSpace=wrap;html=1;aspect=fixed;" vertex="1" parent="1">
          <mxGeometry x="1280" y="585" width="10" height="10" as="geometry" />
        </mxCell>
        <mxCell id="sGS4nasx2kBWRTP7ISPX-132" value="" style="whiteSpace=wrap;html=1;aspect=fixed;" vertex="1" parent="1">
          <mxGeometry x="1290" y="585" width="10" height="10" as="geometry" />
        </mxCell>
        <mxCell id="sGS4nasx2kBWRTP7ISPX-134" value="" style="endArrow=blockThin;dashed=1;html=1;dashPattern=1 3;strokeWidth=1;rounded=0;exitX=1;exitY=0;exitDx=0;exitDy=0;entryX=0;entryY=0.5;entryDx=0;entryDy=0;fillColor=#fff2cc;strokeColor=#0000CC;endFill=1;" edge="1" parent="1" source="sGS4nasx2kBWRTP7ISPX-112" target="sGS4nasx2kBWRTP7ISPX-117">
          <mxGeometry width="50" height="50" relative="1" as="geometry">
            <mxPoint x="1050" y="589.8" as="sourcePoint" />
            <mxPoint x="1120" y="589.8" as="targetPoint" />
          </mxGeometry>
        </mxCell>
        <mxCell id="sGS4nasx2kBWRTP7ISPX-135" value="" style="endArrow=blockThin;dashed=1;html=1;dashPattern=1 3;strokeWidth=1;rounded=0;exitX=1;exitY=1;exitDx=0;exitDy=0;entryX=0;entryY=0.5;entryDx=0;entryDy=0;fillColor=#fff2cc;strokeColor=#0000CC;endFill=1;" edge="1" parent="1" source="sGS4nasx2kBWRTP7ISPX-111" target="sGS4nasx2kBWRTP7ISPX-117">
          <mxGeometry width="50" height="50" relative="1" as="geometry">
            <mxPoint x="1130" y="589.8" as="sourcePoint" />
            <mxPoint x="1160" y="604.8" as="targetPoint" />
          </mxGeometry>
        </mxCell>
        <mxCell id="llZTtqRXWTdCPuyKn7po-3" value="" style="html=1;whiteSpace=wrap;shape=isoCube2;backgroundOutline=1;isoAngle=15;fillColor=none;" parent="1" vertex="1">
          <mxGeometry x="500" y="450" width="120" height="120" as="geometry" />
        </mxCell>
        <mxCell id="sGS4nasx2kBWRTP7ISPX-47" style="rounded=0;orthogonalLoop=1;jettySize=auto;html=1;entryX=0.503;entryY=0.478;entryDx=0;entryDy=0;entryPerimeter=0;exitX=0.5;exitY=1;exitDx=0;exitDy=0;exitPerimeter=0;endArrow=none;endFill=0;dashed=1;dashPattern=1 4;fillColor=#dae8fc;strokeColor=#6c8ebf;" edge="1" parent="1" source="llZTtqRXWTdCPuyKn7po-6" target="llZTtqRXWTdCPuyKn7po-7">
          <mxGeometry relative="1" as="geometry">
            <mxPoint x="570" y="517" as="sourcePoint" />
            <mxPoint x="730" y="530" as="targetPoint" />
          </mxGeometry>
        </mxCell>
        <mxCell id="llZTtqRXWTdCPuyKn7po-6" value="" style="html=1;whiteSpace=wrap;shape=isoCube2;backgroundOutline=1;isoAngle=15;fillColor=default;strokeColor=#6c8ebf;dashed=1;strokeWidth=2;" parent="1" vertex="1">
          <mxGeometry x="530" y="520" width="30" height="30" as="geometry" />
        </mxCell>
        <mxCell id="sGS4nasx2kBWRTP7ISPX-72" style="rounded=0;orthogonalLoop=1;jettySize=auto;html=1;entryX=0;entryY=0.5;entryDx=0;entryDy=0;exitX=0;exitY=0;exitDx=120;exitDy=91.19054891038608;exitPerimeter=0;strokeColor=#6c8ebf;shadow=0;endArrow=block;endFill=1;strokeWidth=1;fillColor=#dae8fc;" edge="1" parent="1" target="sGS4nasx2kBWRTP7ISPX-79">
          <mxGeometry relative="1" as="geometry">
            <mxPoint x="880" y="621.190548910386" as="sourcePoint" />
            <mxPoint x="1140" y="595" as="targetPoint" />
          </mxGeometry>
        </mxCell>
        <mxCell id="sGS4nasx2kBWRTP7ISPX-78" style="rounded=0;orthogonalLoop=1;jettySize=auto;html=1;entryX=0;entryY=0.5;entryDx=0;entryDy=0;exitX=0;exitY=0;exitDx=120;exitDy=91.19054891038608;exitPerimeter=0;strokeColor=#b85450;shadow=0;endArrow=block;endFill=1;strokeWidth=1;fillColor=#f8cecc;" edge="1" parent="1" target="sGS4nasx2kBWRTP7ISPX-95">
          <mxGeometry relative="1" as="geometry">
            <mxPoint x="880" y="621.190548910386" as="sourcePoint" />
            <mxPoint x="1140" y="585" as="targetPoint" />
          </mxGeometry>
        </mxCell>
        <mxCell id="sGS4nasx2kBWRTP7ISPX-137" value="&lt;div&gt;Input&lt;/div&gt;&lt;div&gt;Video&lt;br&gt;&lt;/div&gt;" style="text;html=1;strokeColor=none;fillColor=none;align=center;verticalAlign=middle;whiteSpace=wrap;rounded=0;" vertex="1" parent="1">
          <mxGeometry x="430" y="495" width="60" height="30" as="geometry" />
        </mxCell>
        <mxCell id="sGS4nasx2kBWRTP7ISPX-138" value="&lt;font color=&quot;#b85450&quot;&gt;Subunit filter 1&lt;/font&gt;" style="text;html=1;strokeColor=none;fillColor=none;align=center;verticalAlign=middle;whiteSpace=wrap;rounded=0;" vertex="1" parent="1">
          <mxGeometry x="540" y="274" width="60" height="30" as="geometry" />
        </mxCell>
        <mxCell id="sGS4nasx2kBWRTP7ISPX-139" value="&lt;font color=&quot;#6c8ebf&quot;&gt;Subunit filter 2&lt;br&gt;&lt;/font&gt;" style="text;html=1;strokeColor=none;fillColor=none;align=center;verticalAlign=middle;whiteSpace=wrap;rounded=0;" vertex="1" parent="1">
          <mxGeometry x="540" y="720" width="60" height="30" as="geometry" />
        </mxCell>
        <mxCell id="sGS4nasx2kBWRTP7ISPX-140" value="&lt;div&gt;Activation&lt;/div&gt;&lt;div&gt;Map 1&lt;br&gt;&lt;/div&gt;" style="text;html=1;strokeColor=none;fillColor=none;align=center;verticalAlign=middle;whiteSpace=wrap;rounded=0;" vertex="1" parent="1">
          <mxGeometry x="780" y="340" width="60" height="30" as="geometry" />
        </mxCell>
        <mxCell id="sGS4nasx2kBWRTP7ISPX-141" value="&lt;div&gt;Activation&lt;/div&gt;&lt;div&gt;Map 2&lt;br&gt;&lt;/div&gt;" style="text;html=1;strokeColor=none;fillColor=none;align=center;verticalAlign=middle;whiteSpace=wrap;rounded=0;" vertex="1" parent="1">
          <mxGeometry x="700" y="808.81" width="60" height="30" as="geometry" />
        </mxCell>
        <mxCell id="sGS4nasx2kBWRTP7ISPX-142" value="&lt;div&gt;&lt;font&gt;Ganglion &lt;br&gt;&lt;/font&gt;&lt;/div&gt;&lt;div&gt;&lt;font&gt;R.F.&lt;br&gt;&lt;/font&gt;&lt;/div&gt;" style="text;html=1;strokeColor=none;fillColor=none;align=center;verticalAlign=middle;whiteSpace=wrap;rounded=0;fontColor=#0000CC;" vertex="1" parent="1">
          <mxGeometry x="730" y="604.8" width="60" height="30" as="geometry" />
        </mxCell>
        <mxCell id="sGS4nasx2kBWRTP7ISPX-143" value="&lt;div&gt;&lt;font&gt;Ganglion &lt;br&gt;&lt;/font&gt;&lt;/div&gt;&lt;div&gt;&lt;font&gt;feature weights&lt;br&gt;&lt;/font&gt;&lt;/div&gt;" style="text;html=1;strokeColor=none;fillColor=none;align=center;verticalAlign=middle;whiteSpace=wrap;rounded=0;fontColor=#0000CC;" vertex="1" parent="1">
          <mxGeometry x="1075" y="639.52" width="60" height="30" as="geometry" />
        </mxCell>
        <mxCell id="sGS4nasx2kBWRTP7ISPX-144" value="Spike frequency" style="text;html=1;strokeColor=none;fillColor=none;align=center;verticalAlign=middle;whiteSpace=wrap;rounded=0;" vertex="1" parent="1">
          <mxGeometry x="1140" y="639.52" width="60" height="30" as="geometry" />
        </mxCell>
        <mxCell id="sGS4nasx2kBWRTP7ISPX-145" value="&lt;div&gt;Feature&lt;/div&gt;&lt;div&gt;scores&lt;br&gt;&lt;/div&gt;" style="text;html=1;strokeColor=none;fillColor=none;align=center;verticalAlign=middle;whiteSpace=wrap;rounded=0;" vertex="1" parent="1">
          <mxGeometry x="910" y="639.52" width="70" height="30" as="geometry" />
        </mxCell>
        <mxCell id="sGS4nasx2kBWRTP7ISPX-146" value="N@31*108*18" style="text;html=1;strokeColor=none;fillColor=none;align=center;verticalAlign=middle;whiteSpace=wrap;rounded=0;" vertex="1" parent="1">
          <mxGeometry x="430" y="520" width="60" height="30" as="geometry" />
        </mxCell>
        <mxCell id="sGS4nasx2kBWRTP7ISPX-147" value="&lt;font color=&quot;#b85450&quot;&gt;8*30*30&lt;/font&gt;" style="text;html=1;strokeColor=none;fillColor=none;align=center;verticalAlign=middle;whiteSpace=wrap;rounded=0;" vertex="1" parent="1">
          <mxGeometry x="540" y="250" width="60" height="30" as="geometry" />
        </mxCell>
        <mxCell id="sGS4nasx2kBWRTP7ISPX-148" value="N@24*79*79" style="text;html=1;strokeColor=none;fillColor=none;align=center;verticalAlign=middle;whiteSpace=wrap;rounded=0;" vertex="1" parent="1">
          <mxGeometry x="780" y="310" width="60" height="30" as="geometry" />
        </mxCell>
        <mxCell id="sGS4nasx2kBWRTP7ISPX-149" value="N@24*79*79" style="text;html=1;strokeColor=none;fillColor=none;align=center;verticalAlign=middle;whiteSpace=wrap;rounded=0;" vertex="1" parent="1">
          <mxGeometry x="700" y="838.81" width="60" height="30" as="geometry" />
        </mxCell>
        <mxCell id="sGS4nasx2kBWRTP7ISPX-150" value="&lt;font&gt;9*79*79&lt;/font&gt;" style="text;html=1;strokeColor=none;fillColor=none;align=center;verticalAlign=middle;whiteSpace=wrap;rounded=0;fontColor=#0000CC;" vertex="1" parent="1">
          <mxGeometry x="730" y="579.8" width="60" height="30" as="geometry" />
        </mxCell>
        <mxCell id="sGS4nasx2kBWRTP7ISPX-151" value="N@16*2" style="text;html=1;strokeColor=none;fillColor=none;align=center;verticalAlign=middle;whiteSpace=wrap;rounded=0;" vertex="1" parent="1">
          <mxGeometry x="915" y="609.52" width="60" height="30" as="geometry" />
        </mxCell>
        <mxCell id="sGS4nasx2kBWRTP7ISPX-152" value="N@16*1" style="text;html=1;strokeColor=none;fillColor=none;align=center;verticalAlign=middle;whiteSpace=wrap;rounded=0;" vertex="1" parent="1">
          <mxGeometry x="1140" y="609.52" width="60" height="30" as="geometry" />
        </mxCell>
        <mxCell id="sGS4nasx2kBWRTP7ISPX-153" value="&lt;font&gt;1*2&lt;/font&gt;" style="text;html=1;strokeColor=none;fillColor=none;align=center;verticalAlign=middle;whiteSpace=wrap;rounded=0;fontColor=#0000CC;" vertex="1" parent="1">
          <mxGeometry x="1075" y="609.52" width="60" height="30" as="geometry" />
        </mxCell>
        <mxCell id="sGS4nasx2kBWRTP7ISPX-154" value="&lt;div&gt;&lt;font color=&quot;#6c8ebf&quot;&gt;8*30*30&lt;/font&gt;&lt;/div&gt;&lt;div&gt;&lt;font color=&quot;#6c8ebf&quot;&gt;&lt;br&gt;&lt;/font&gt;&lt;/div&gt;" style="text;html=1;strokeColor=none;fillColor=none;align=center;verticalAlign=middle;whiteSpace=wrap;rounded=0;" vertex="1" parent="1">
          <mxGeometry x="540" y="750" width="60" height="30" as="geometry" />
        </mxCell>
        <mxCell id="sGS4nasx2kBWRTP7ISPX-185" value="" style="group" vertex="1" connectable="0" parent="1">
          <mxGeometry x="722" y="698.999451089614" width="85.12000000000012" height="105.00054891038599" as="geometry" />
        </mxCell>
        <mxCell id="sGS4nasx2kBWRTP7ISPX-186" value="" style="endArrow=none;html=1;strokeWidth=2;rounded=0;exitX=0.501;exitY=0.479;exitDx=0;exitDy=0;exitPerimeter=0;entryX=0;entryY=0;entryDx=120;entryDy=28.80945108961392;entryPerimeter=0;strokeColor=#0000CC;dashed=1;" edge="1" parent="sGS4nasx2kBWRTP7ISPX-185">
          <mxGeometry width="50" height="50" relative="1" as="geometry">
            <mxPoint x="25" y="41.67054891038606" as="sourcePoint" />
            <mxPoint x="84.88000000000011" y="13" as="targetPoint" />
          </mxGeometry>
        </mxCell>
        <mxCell id="sGS4nasx2kBWRTP7ISPX-187" value="" style="endArrow=none;html=1;rounded=0;exitX=0.5;exitY=1;exitDx=0;exitDy=0;exitPerimeter=0;entryX=0.499;entryY=0.478;entryDx=0;entryDy=0;entryPerimeter=0;strokeColor=#0000CC;dashed=1;strokeWidth=2;" edge="1" parent="sGS4nasx2kBWRTP7ISPX-185">
          <mxGeometry width="50" height="50" relative="1" as="geometry">
            <mxPoint x="25.12000000000012" y="104.64054891038609" as="sourcePoint" />
            <mxPoint x="25" y="42.00054891038599" as="targetPoint" />
          </mxGeometry>
        </mxCell>
        <mxCell id="sGS4nasx2kBWRTP7ISPX-188" value="" style="endArrow=none;html=1;strokeWidth=2;rounded=0;exitX=0.501;exitY=0.479;exitDx=0;exitDy=0;exitPerimeter=0;entryX=0;entryY=0;entryDx=120;entryDy=28.80945108961392;entryPerimeter=0;strokeColor=#0000CC;dashed=1;" edge="1" parent="sGS4nasx2kBWRTP7ISPX-185">
          <mxGeometry width="50" height="50" relative="1" as="geometry">
            <mxPoint y="28.67054891038606" as="sourcePoint" />
            <mxPoint x="59.88000000000011" as="targetPoint" />
          </mxGeometry>
        </mxCell>
        <mxCell id="sGS4nasx2kBWRTP7ISPX-189" value="" style="endArrow=none;html=1;rounded=0;exitX=0.5;exitY=1;exitDx=0;exitDy=0;exitPerimeter=0;entryX=0.499;entryY=0.478;entryDx=0;entryDy=0;entryPerimeter=0;strokeColor=#0000CC;dashed=1;strokeWidth=2;" edge="1" parent="sGS4nasx2kBWRTP7ISPX-185">
          <mxGeometry width="50" height="50" relative="1" as="geometry">
            <mxPoint x="0.12000000000011823" y="91.64054891038609" as="sourcePoint" />
            <mxPoint y="29.000548910385987" as="targetPoint" />
          </mxGeometry>
        </mxCell>
        <mxCell id="sGS4nasx2kBWRTP7ISPX-190" value="" style="endArrow=none;html=1;strokeWidth=2;rounded=0;exitX=0.501;exitY=0.479;exitDx=0;exitDy=0;exitPerimeter=0;entryX=0;entryY=0;entryDx=120;entryDy=28.80945108961392;entryPerimeter=0;strokeColor=#0000CC;dashed=1;" edge="1" parent="sGS4nasx2kBWRTP7ISPX-185">
          <mxGeometry width="50" height="50" relative="1" as="geometry">
            <mxPoint x="25" y="104.67054891038606" as="sourcePoint" />
            <mxPoint x="84.88000000000011" y="76" as="targetPoint" />
          </mxGeometry>
        </mxCell>
        <mxCell id="sGS4nasx2kBWRTP7ISPX-191" value="" style="endArrow=none;html=1;rounded=0;exitX=0.5;exitY=1;exitDx=0;exitDy=0;exitPerimeter=0;entryX=0.499;entryY=0.478;entryDx=0;entryDy=0;entryPerimeter=0;strokeColor=#0000CC;dashed=1;strokeWidth=2;" edge="1" parent="sGS4nasx2kBWRTP7ISPX-185">
          <mxGeometry width="50" height="50" relative="1" as="geometry">
            <mxPoint x="85.12000000000012" y="75.64054891038609" as="sourcePoint" />
            <mxPoint x="85" y="13.000548910385987" as="targetPoint" />
          </mxGeometry>
        </mxCell>
        <mxCell id="sGS4nasx2kBWRTP7ISPX-192" value="" style="endArrow=none;html=1;rounded=0;strokeColor=#0000CC;dashed=1;strokeWidth=2;" edge="1" parent="sGS4nasx2kBWRTP7ISPX-185">
          <mxGeometry width="50" height="50" relative="1" as="geometry">
            <mxPoint y="29.000548910385987" as="sourcePoint" />
            <mxPoint x="25" y="42.00054891038599" as="targetPoint" />
          </mxGeometry>
        </mxCell>
        <mxCell id="sGS4nasx2kBWRTP7ISPX-193" value="" style="endArrow=none;html=1;rounded=0;strokeColor=#0000CC;dashed=1;strokeWidth=2;" edge="1" parent="sGS4nasx2kBWRTP7ISPX-185">
          <mxGeometry width="50" height="50" relative="1" as="geometry">
            <mxPoint y="92.00054891038599" as="sourcePoint" />
            <mxPoint x="25" y="105.00054891038599" as="targetPoint" />
          </mxGeometry>
        </mxCell>
        <mxCell id="sGS4nasx2kBWRTP7ISPX-194" value="" style="endArrow=none;html=1;rounded=0;strokeColor=#0000CC;dashed=1;strokeWidth=2;" edge="1" parent="sGS4nasx2kBWRTP7ISPX-185">
          <mxGeometry width="50" height="50" relative="1" as="geometry">
            <mxPoint x="60" y="0.0005489103859872557" as="sourcePoint" />
            <mxPoint x="85" y="13.000548910385987" as="targetPoint" />
          </mxGeometry>
        </mxCell>
        <mxCell id="sGS4nasx2kBWRTP7ISPX-210" value="" style="endArrow=none;dashed=1;html=1;dashPattern=1 3;strokeWidth=1;rounded=0;exitX=0.39;exitY=0.436;exitDx=0;exitDy=0;exitPerimeter=0;endSize=7;strokeColor=#0000CC;" edge="1" parent="1" source="llZTtqRXWTdCPuyKn7po-9">
          <mxGeometry width="50" height="50" relative="1" as="geometry">
            <mxPoint x="817" y="722" as="sourcePoint" />
            <mxPoint x="820" y="650" as="targetPoint" />
          </mxGeometry>
        </mxCell>
        <mxCell id="sGS4nasx2kBWRTP7ISPX-211" value="" style="endArrow=none;dashed=1;html=1;dashPattern=1 3;strokeWidth=1;rounded=0;endSize=7;strokeColor=#0000CC;" edge="1" parent="1">
          <mxGeometry width="50" height="50" relative="1" as="geometry">
            <mxPoint x="722" y="728" as="sourcePoint" />
            <mxPoint x="794" y="639" as="targetPoint" />
          </mxGeometry>
        </mxCell>
        <mxCell id="sGS4nasx2kBWRTP7ISPX-212" value="" style="endArrow=none;dashed=1;html=1;dashPattern=1 3;strokeWidth=1;rounded=0;endSize=7;strokeColor=#0000CC;" edge="1" parent="1">
          <mxGeometry width="50" height="50" relative="1" as="geometry">
            <mxPoint x="782" y="699" as="sourcePoint" />
            <mxPoint x="849" y="612" as="targetPoint" />
          </mxGeometry>
        </mxCell>
        <mxCell id="sGS4nasx2kBWRTP7ISPX-213" value="" style="endArrow=none;dashed=1;html=1;dashPattern=1 3;strokeWidth=1;rounded=0;endSize=7;strokeColor=#0000CC;" edge="1" parent="1">
          <mxGeometry width="50" height="50" relative="1" as="geometry">
            <mxPoint x="723" y="472.4878048780488" as="sourcePoint" />
            <mxPoint x="794" y="576" as="targetPoint" />
          </mxGeometry>
        </mxCell>
        <mxCell id="llZTtqRXWTdCPuyKn7po-8" value="" style="html=1;whiteSpace=wrap;shape=isoCube2;backgroundOutline=1;isoAngle=15;fillColor=default;" parent="1" vertex="1">
          <mxGeometry x="700" y="370" width="120" height="120" as="geometry" />
        </mxCell>
        <mxCell id="sGS4nasx2kBWRTP7ISPX-174" value="" style="group" vertex="1" connectable="0" parent="1">
          <mxGeometry x="723" y="379.99945108961396" width="85.12000000000012" height="105.00054891038599" as="geometry" />
        </mxCell>
        <mxCell id="sGS4nasx2kBWRTP7ISPX-175" value="" style="endArrow=none;html=1;strokeWidth=2;rounded=0;exitX=0.501;exitY=0.479;exitDx=0;exitDy=0;exitPerimeter=0;entryX=0;entryY=0;entryDx=120;entryDy=28.80945108961392;entryPerimeter=0;strokeColor=#0000CC;dashed=1;" edge="1" parent="sGS4nasx2kBWRTP7ISPX-174">
          <mxGeometry width="50" height="50" relative="1" as="geometry">
            <mxPoint x="25" y="41.67054891038606" as="sourcePoint" />
            <mxPoint x="84.88000000000011" y="13" as="targetPoint" />
          </mxGeometry>
        </mxCell>
        <mxCell id="sGS4nasx2kBWRTP7ISPX-176" value="" style="endArrow=none;html=1;rounded=0;exitX=0.5;exitY=1;exitDx=0;exitDy=0;exitPerimeter=0;entryX=0.499;entryY=0.478;entryDx=0;entryDy=0;entryPerimeter=0;strokeColor=#0000CC;dashed=1;strokeWidth=2;" edge="1" parent="sGS4nasx2kBWRTP7ISPX-174">
          <mxGeometry width="50" height="50" relative="1" as="geometry">
            <mxPoint x="25.12000000000012" y="104.64054891038609" as="sourcePoint" />
            <mxPoint x="25" y="42.00054891038599" as="targetPoint" />
          </mxGeometry>
        </mxCell>
        <mxCell id="sGS4nasx2kBWRTP7ISPX-177" value="" style="endArrow=none;html=1;strokeWidth=2;rounded=0;exitX=0.501;exitY=0.479;exitDx=0;exitDy=0;exitPerimeter=0;entryX=0;entryY=0;entryDx=120;entryDy=28.80945108961392;entryPerimeter=0;strokeColor=#0000CC;dashed=1;" edge="1" parent="sGS4nasx2kBWRTP7ISPX-174">
          <mxGeometry width="50" height="50" relative="1" as="geometry">
            <mxPoint y="28.67054891038606" as="sourcePoint" />
            <mxPoint x="59.88000000000011" as="targetPoint" />
          </mxGeometry>
        </mxCell>
        <mxCell id="sGS4nasx2kBWRTP7ISPX-178" value="" style="endArrow=none;html=1;rounded=0;exitX=0.5;exitY=1;exitDx=0;exitDy=0;exitPerimeter=0;entryX=0.499;entryY=0.478;entryDx=0;entryDy=0;entryPerimeter=0;strokeColor=#0000CC;dashed=1;strokeWidth=2;" edge="1" parent="sGS4nasx2kBWRTP7ISPX-174">
          <mxGeometry width="50" height="50" relative="1" as="geometry">
            <mxPoint x="0.12000000000011823" y="91.64054891038609" as="sourcePoint" />
            <mxPoint y="29.000548910385987" as="targetPoint" />
          </mxGeometry>
        </mxCell>
        <mxCell id="sGS4nasx2kBWRTP7ISPX-179" value="" style="endArrow=none;html=1;strokeWidth=2;rounded=0;exitX=0.501;exitY=0.479;exitDx=0;exitDy=0;exitPerimeter=0;entryX=0;entryY=0;entryDx=120;entryDy=28.80945108961392;entryPerimeter=0;strokeColor=#0000CC;dashed=1;" edge="1" parent="sGS4nasx2kBWRTP7ISPX-174">
          <mxGeometry width="50" height="50" relative="1" as="geometry">
            <mxPoint x="25" y="104.67054891038606" as="sourcePoint" />
            <mxPoint x="84.88000000000011" y="76" as="targetPoint" />
          </mxGeometry>
        </mxCell>
        <mxCell id="sGS4nasx2kBWRTP7ISPX-180" value="" style="endArrow=none;html=1;rounded=0;exitX=0.5;exitY=1;exitDx=0;exitDy=0;exitPerimeter=0;entryX=0.499;entryY=0.478;entryDx=0;entryDy=0;entryPerimeter=0;strokeColor=#0000CC;dashed=1;strokeWidth=2;" edge="1" parent="sGS4nasx2kBWRTP7ISPX-174">
          <mxGeometry width="50" height="50" relative="1" as="geometry">
            <mxPoint x="85.12000000000012" y="75.64054891038609" as="sourcePoint" />
            <mxPoint x="85" y="13.000548910385987" as="targetPoint" />
          </mxGeometry>
        </mxCell>
        <mxCell id="sGS4nasx2kBWRTP7ISPX-181" value="" style="endArrow=none;html=1;rounded=0;strokeColor=#0000CC;dashed=1;strokeWidth=2;" edge="1" parent="sGS4nasx2kBWRTP7ISPX-174">
          <mxGeometry width="50" height="50" relative="1" as="geometry">
            <mxPoint y="29.000548910385987" as="sourcePoint" />
            <mxPoint x="25" y="42.00054891038599" as="targetPoint" />
          </mxGeometry>
        </mxCell>
        <mxCell id="sGS4nasx2kBWRTP7ISPX-182" value="" style="endArrow=none;html=1;rounded=0;strokeColor=#0000CC;dashed=1;strokeWidth=2;" edge="1" parent="sGS4nasx2kBWRTP7ISPX-174">
          <mxGeometry width="50" height="50" relative="1" as="geometry">
            <mxPoint y="92.00054891038599" as="sourcePoint" />
            <mxPoint x="25" y="105.00054891038599" as="targetPoint" />
          </mxGeometry>
        </mxCell>
        <mxCell id="sGS4nasx2kBWRTP7ISPX-183" value="" style="endArrow=none;html=1;rounded=0;strokeColor=#0000CC;dashed=1;strokeWidth=2;" edge="1" parent="sGS4nasx2kBWRTP7ISPX-174">
          <mxGeometry width="50" height="50" relative="1" as="geometry">
            <mxPoint x="60" y="0.0005489103859872557" as="sourcePoint" />
            <mxPoint x="85" y="13.000548910385987" as="targetPoint" />
          </mxGeometry>
        </mxCell>
        <mxCell id="sGS4nasx2kBWRTP7ISPX-208" value="" style="group;fillColor=default;" vertex="1" connectable="0" parent="1">
          <mxGeometry x="794" y="546.999451089614" width="85.12000000000012" height="105.00054891038599" as="geometry" />
        </mxCell>
        <mxCell id="sGS4nasx2kBWRTP7ISPX-161" value="" style="endArrow=none;html=1;strokeWidth=1;rounded=0;exitX=0.501;exitY=0.479;exitDx=0;exitDy=0;exitPerimeter=0;entryX=0;entryY=0;entryDx=120;entryDy=28.80945108961392;entryPerimeter=0;strokeColor=#0000CC;" edge="1" parent="sGS4nasx2kBWRTP7ISPX-208">
          <mxGeometry width="50" height="50" relative="1" as="geometry">
            <mxPoint x="25" y="41.67054891038606" as="sourcePoint" />
            <mxPoint x="84.88000000000011" y="13" as="targetPoint" />
          </mxGeometry>
        </mxCell>
        <mxCell id="sGS4nasx2kBWRTP7ISPX-164" value="" style="endArrow=none;html=1;rounded=0;exitX=0.5;exitY=1;exitDx=0;exitDy=0;exitPerimeter=0;entryX=0.499;entryY=0.478;entryDx=0;entryDy=0;entryPerimeter=0;strokeWidth=1;strokeColor=#0000CC;" edge="1" parent="sGS4nasx2kBWRTP7ISPX-208">
          <mxGeometry width="50" height="50" relative="1" as="geometry">
            <mxPoint x="25.12000000000012" y="104.64054891038609" as="sourcePoint" />
            <mxPoint x="25" y="42.00054891038599" as="targetPoint" />
          </mxGeometry>
        </mxCell>
        <mxCell id="sGS4nasx2kBWRTP7ISPX-165" value="" style="endArrow=none;html=1;strokeWidth=1;rounded=0;exitX=0.501;exitY=0.479;exitDx=0;exitDy=0;exitPerimeter=0;entryX=0;entryY=0;entryDx=120;entryDy=28.80945108961392;entryPerimeter=0;strokeColor=#0000CC;" edge="1" parent="sGS4nasx2kBWRTP7ISPX-208">
          <mxGeometry width="50" height="50" relative="1" as="geometry">
            <mxPoint y="28.67054891038606" as="sourcePoint" />
            <mxPoint x="59.88000000000011" as="targetPoint" />
          </mxGeometry>
        </mxCell>
        <mxCell id="sGS4nasx2kBWRTP7ISPX-166" value="" style="endArrow=none;html=1;rounded=0;exitX=0.5;exitY=1;exitDx=0;exitDy=0;exitPerimeter=0;entryX=0.499;entryY=0.478;entryDx=0;entryDy=0;entryPerimeter=0;strokeWidth=1;strokeColor=#0000CC;" edge="1" parent="sGS4nasx2kBWRTP7ISPX-208">
          <mxGeometry width="50" height="50" relative="1" as="geometry">
            <mxPoint x="0.12000000000011823" y="91.64054891038609" as="sourcePoint" />
            <mxPoint y="29.000548910385987" as="targetPoint" />
          </mxGeometry>
        </mxCell>
        <mxCell id="sGS4nasx2kBWRTP7ISPX-167" value="" style="endArrow=none;html=1;strokeWidth=1;rounded=0;exitX=0.501;exitY=0.479;exitDx=0;exitDy=0;exitPerimeter=0;entryX=0;entryY=0;entryDx=120;entryDy=28.80945108961392;entryPerimeter=0;strokeColor=#0000CC;" edge="1" parent="sGS4nasx2kBWRTP7ISPX-208">
          <mxGeometry width="50" height="50" relative="1" as="geometry">
            <mxPoint x="25" y="104.67054891038606" as="sourcePoint" />
            <mxPoint x="84.88000000000011" y="76" as="targetPoint" />
          </mxGeometry>
        </mxCell>
        <mxCell id="sGS4nasx2kBWRTP7ISPX-168" value="" style="endArrow=none;html=1;rounded=0;exitX=0.5;exitY=1;exitDx=0;exitDy=0;exitPerimeter=0;entryX=0.499;entryY=0.478;entryDx=0;entryDy=0;entryPerimeter=0;strokeWidth=1;strokeColor=#0000CC;" edge="1" parent="sGS4nasx2kBWRTP7ISPX-208">
          <mxGeometry width="50" height="50" relative="1" as="geometry">
            <mxPoint x="85.12000000000012" y="75.64054891038609" as="sourcePoint" />
            <mxPoint x="85" y="13.000548910385987" as="targetPoint" />
          </mxGeometry>
        </mxCell>
        <mxCell id="sGS4nasx2kBWRTP7ISPX-169" value="" style="endArrow=none;html=1;rounded=0;strokeWidth=1;strokeColor=#0000CC;" edge="1" parent="sGS4nasx2kBWRTP7ISPX-208">
          <mxGeometry width="50" height="50" relative="1" as="geometry">
            <mxPoint y="29.000548910385987" as="sourcePoint" />
            <mxPoint x="25" y="42.00054891038599" as="targetPoint" />
          </mxGeometry>
        </mxCell>
        <mxCell id="sGS4nasx2kBWRTP7ISPX-170" value="" style="endArrow=none;html=1;rounded=0;strokeWidth=1;strokeColor=#0000CC;" edge="1" parent="sGS4nasx2kBWRTP7ISPX-208">
          <mxGeometry width="50" height="50" relative="1" as="geometry">
            <mxPoint y="92.00054891038599" as="sourcePoint" />
            <mxPoint x="25" y="105.00054891038599" as="targetPoint" />
          </mxGeometry>
        </mxCell>
        <mxCell id="sGS4nasx2kBWRTP7ISPX-171" value="" style="endArrow=none;html=1;rounded=0;strokeWidth=1;strokeColor=#0000CC;" edge="1" parent="sGS4nasx2kBWRTP7ISPX-208">
          <mxGeometry width="50" height="50" relative="1" as="geometry">
            <mxPoint x="60" y="0.0005489103859872557" as="sourcePoint" />
            <mxPoint x="85" y="13.000548910385987" as="targetPoint" />
          </mxGeometry>
        </mxCell>
        <mxCell id="sGS4nasx2kBWRTP7ISPX-214" value="" style="endArrow=none;dashed=1;html=1;dashPattern=1 3;strokeWidth=1;rounded=0;endSize=7;strokeColor=#0000CC;" edge="1" parent="1">
          <mxGeometry width="50" height="50" relative="1" as="geometry">
            <mxPoint x="748" y="484" as="sourcePoint" />
            <mxPoint x="819" y="588.2439024390244" as="targetPoint" />
          </mxGeometry>
        </mxCell>
        <mxCell id="sGS4nasx2kBWRTP7ISPX-215" value="" style="endArrow=none;dashed=1;html=1;dashPattern=1 3;strokeWidth=1;rounded=0;endSize=7;strokeColor=#0000CC;" edge="1" parent="1">
          <mxGeometry width="50" height="50" relative="1" as="geometry">
            <mxPoint x="808" y="456" as="sourcePoint" />
            <mxPoint x="878" y="560" as="targetPoint" />
          </mxGeometry>
        </mxCell>
        <mxCell id="sGS4nasx2kBWRTP7ISPX-209" value="" style="endArrow=none;dashed=1;html=1;dashPattern=1 3;strokeWidth=1;rounded=0;exitX=0.891;exitY=0.191;exitDx=0;exitDy=0;exitPerimeter=0;endSize=7;strokeColor=#0000CC;" edge="1" parent="1" source="llZTtqRXWTdCPuyKn7po-9">
          <mxGeometry width="50" height="50" relative="1" as="geometry">
            <mxPoint x="811.56" y="702" as="sourcePoint" />
            <mxPoint x="879" y="623" as="targetPoint" />
          </mxGeometry>
        </mxCell>
        <mxCell id="sGS4nasx2kBWRTP7ISPX-73" style="rounded=0;orthogonalLoop=1;jettySize=auto;html=1;entryX=0;entryY=0.5;entryDx=0;entryDy=0;strokeColor=#6c8ebf;shadow=0;endArrow=block;endFill=1;strokeWidth=1;fillColor=#dae8fc;exitX=0.498;exitY=0.493;exitDx=0;exitDy=0;exitPerimeter=0;" edge="1" parent="1" target="sGS4nasx2kBWRTP7ISPX-79">
          <mxGeometry relative="1" as="geometry">
            <mxPoint x="819.7599999999998" y="589.1599999999999" as="sourcePoint" />
            <mxPoint x="1160" y="605" as="targetPoint" />
          </mxGeometry>
        </mxCell>
        <mxCell id="sGS4nasx2kBWRTP7ISPX-76" style="rounded=0;orthogonalLoop=1;jettySize=auto;html=1;entryX=0;entryY=0.5;entryDx=0;entryDy=0;exitX=0.5;exitY=0.5;exitDx=0;exitDy=0;exitPerimeter=0;strokeColor=#b85450;shadow=0;endArrow=block;endFill=1;strokeWidth=1;fillColor=#f8cecc;" edge="1" parent="1" target="sGS4nasx2kBWRTP7ISPX-95">
          <mxGeometry relative="1" as="geometry">
            <mxPoint x="820" y="590" as="sourcePoint" />
            <mxPoint x="1160.01" y="595.01" as="targetPoint" />
          </mxGeometry>
        </mxCell>
        <mxCell id="sGS4nasx2kBWRTP7ISPX-74" style="rounded=0;orthogonalLoop=1;jettySize=auto;html=1;entryX=0;entryY=0.5;entryDx=0;entryDy=0;strokeColor=#6c8ebf;shadow=0;endArrow=block;endFill=1;strokeWidth=1;fillColor=#dae8fc;" edge="1" parent="1" target="sGS4nasx2kBWRTP7ISPX-79">
          <mxGeometry relative="1" as="geometry">
            <mxPoint x="880" y="560" as="sourcePoint" />
            <mxPoint x="1140" y="585" as="targetPoint" />
          </mxGeometry>
        </mxCell>
        <mxCell id="sGS4nasx2kBWRTP7ISPX-77" style="rounded=0;orthogonalLoop=1;jettySize=auto;html=1;entryX=0;entryY=0.5;entryDx=0;entryDy=0;strokeColor=#b85450;shadow=0;endArrow=block;endFill=1;strokeWidth=1;fillColor=#f8cecc;" edge="1" parent="1" target="sGS4nasx2kBWRTP7ISPX-95">
          <mxGeometry relative="1" as="geometry">
            <mxPoint x="880" y="560" as="sourcePoint" />
            <mxPoint x="1140" y="575" as="targetPoint" />
          </mxGeometry>
        </mxCell>
        <mxCell id="sGS4nasx2kBWRTP7ISPX-71" style="rounded=0;orthogonalLoop=1;jettySize=auto;html=1;entryX=0;entryY=0.5;entryDx=0;entryDy=0;exitX=0.5;exitY=1;exitDx=0;exitDy=0;exitPerimeter=0;strokeColor=#6c8ebf;shadow=0;endArrow=block;endFill=1;strokeWidth=1;fillColor=#dae8fc;" edge="1" parent="1" target="sGS4nasx2kBWRTP7ISPX-79">
          <mxGeometry relative="1" as="geometry">
            <mxPoint x="820" y="650" as="sourcePoint" />
            <mxPoint x="1160" y="615" as="targetPoint" />
          </mxGeometry>
        </mxCell>
        <mxCell id="sGS4nasx2kBWRTP7ISPX-75" style="rounded=0;orthogonalLoop=1;jettySize=auto;html=1;entryX=0;entryY=0.5;entryDx=0;entryDy=0;exitX=0.5;exitY=1;exitDx=0;exitDy=0;exitPerimeter=0;strokeColor=#b85450;shadow=0;endArrow=block;endFill=1;strokeWidth=1;fillColor=#f8cecc;" edge="1" parent="1" target="sGS4nasx2kBWRTP7ISPX-95">
          <mxGeometry relative="1" as="geometry">
            <mxPoint x="820" y="650" as="sourcePoint" />
            <mxPoint x="1160" y="605" as="targetPoint" />
          </mxGeometry>
        </mxCell>
      </root>
    </mxGraphModel>
  </diagram>
</mxfile>
